<svg width="428" height="176" viewBox="0 0 428 176" fill="none" xmlns="http://www.w3.org/2000/svg">
<path fill-rule="evenodd" clip-rule="evenodd" d="M823.644 62.9276C781.632 74.0045 738.991 78.0698 695.989 74.5676C659.915 71.6285 622.458 61.6545 600.722 54.1977C530.632 30.1539 459.457 1.29841 416.616 0.362848C302.087 -2.13974 241.71 79.3603 119.386 140.042C57.1826 170.9 -8.51292 190.649 -78.0294 199.617C-34.4052 200.129 9.21786 200.64 52.842 201.152C124.129 210.047 194.347 208.81 263.594 197.144C343.619 183.662 406.544 157.009 486.541 143.24C554.814 131.49 610.575 128.58 671.352 139.391C715.691 147.277 760.643 161.877 803.358 181.742C816.299 187.76 828.801 194.141 841.389 201.152" fill="#073B4A"/>
</svg>
