<svg width="428" height="194" viewBox="0 0 428 194" fill="none" xmlns="http://www.w3.org/2000/svg">
<path fill-rule="evenodd" clip-rule="evenodd" d="M-290.062 32.9128C-252.588 32.9754 -216.346 37.7376 -181.27 47.4628C-165.747 51.7666 -146.191 58.8277 -127.543 63.3819C-103.899 69.1567 -77.1904 73.1012 -49.019 75.323C13.1407 80.2263 83.1013 74.095 149.544 62.0127C256.735 47.5413 379.914 30.3666 465.927 15.4529C521.296 5.85138 590.184 -1.83391 662.417 0.902937C729.758 3.45354 796.418 13.6982 862.238 31.4578C861.497 94.5071 860.758 157.556 860.017 220.607C761.43 193.608 661.044 182.076 559.176 187.142C501.47 190.012 426.1 204.86 393.769 208.967C239.453 228.569 75.9699 229.809 12.518 208.669C-50.5621 187.653 -107.76 161.418 -177.513 150.066C-215.312 143.913 -253.127 141.134 -290.891 141.694L-290.062 32.9128Z" fill="#007C9D"/>
</svg>
