<svg width="428" height="197" viewBox="0 0 428 197" fill="none" xmlns="http://www.w3.org/2000/svg">
<path fill-rule="evenodd" clip-rule="evenodd" d="M-247.877 65.5576C-227.092 49.6836 -205.221 36.545 -182.38 26.2728C-148.526 11.0477 -110.565 1.25123 -65.8181 0.0828692C-22.0285 -1.06221 31.7155 9.95937 47.4136 14.6328C134.179 40.4575 232.927 69.0569 307.942 85.9989C368.825 99.7486 439.957 107.929 515.538 111.114C589.246 114.22 657.202 111.575 718.343 102.741C764.041 96.1402 809.299 86.3684 854.079 73.4408L852.247 157.222C797.418 173.675 741.894 185.337 685.73 192.142C593.918 203.266 453.335 191.915 314.33 171.81C238.15 160.79 176.641 152.336 100.699 152.857C57.4146 153.154 1.23392 158.005 -52.4967 164.497C-119.259 172.562 -184.92 183.096 -252.317 196.507C-278.063 148.543 -280.511 102.816 -265.639 80.1076C-261.249 73.4044 -255.273 68.5942 -247.877 65.5576Z" fill="#FFAF00"/>
</svg>
